# xmcd
#
# Track frame offsets: 
#        150
#        21910
#        38472
#        59470
#        79645
#        101000
#        120282
#        141057
#        159677
#        181432
#        203857
#        223022
#
# Disc length: 3218 seconds
#
# Revision: 1
# Processed by: cddbd v1.5.2PL0 Copyright (c) Steve Scherf et al.
# Submitted via: ExactAudioCopyFreeDBPlugin 1.0
#
DISCID=9f0c900c
DTITLE=林志炫 - 散了吧
DYEAR=1997
DGENRE=Pop
TTITLE0=懂事
TTITLE1=現在我這麼想
TTITLE2=散了吧
TTITLE3=一個人走
TTITLE4=讓愛做主
TTITLE5=一個人一顆心
TTITLE6=失而復得
TTITLE7=暗戀妳
TTITLE8=愛我
TTITLE9=後悔的浪
TTITLE10=窮途末路
TTITLE11=妥協
EXTD=
EXTT0=
EXTT1=
EXTT2=
EXTT3=
EXTT4=
EXTT5=
EXTT6=
EXTT7=
EXTT8=
EXTT9=
EXTT10=
EXTT11=
PLAYORDER=
